<svg xmlns="http://www.w3.org/2000/svg" width="429" height="238" shape-rendering="geometricPrecision" image-rendering="optimizeQuality" fill-rule="evenodd" xmlns:v="https://vecta.io/nano"><path fill="#2d2d2a" d="M-.5-.5h429v238H-.5V-.5z"/><path fill="#121211" d="M161.5 78.5h105v77h-105v-77z"/><path d="M166.5 83.5h95a721.82 721.82 0 0 1-.5 38 971.09 971.09 0 0 0-27.5-25 362.03 362.03 0 0 0-28.5 27l-15-14c-7.97 6.969-15.636 14.302-23 22a1151.62 1151.62 0 0 1-.5-48zm66 22c1.422.209 2.755.709 4 1.5l24.5 22.5c.5 6.992.666 13.992.5 21a392.58 392.58 0 0 1-28-.5L210 128.5c6.836-8.006 14.336-15.673 22.5-23zm-43 12a1588.34 1588.34 0 0 1 35 32.5 1681.34 1681.34 0 0 1-58 .5 60.93 60.93 0 0 1 .5-11 233.59 233.59 0 0 0 22.5-22z" fill="#2d2d2a"/></svg>